<?xml version="1.0" encoding="UTF-8" standalone="no"?>
<!DOCTYPE svg PUBLIC "-//W3C//DTD SVG 1.1//EN"
 "http://www.w3.org/Graphics/SVG/1.1/DTD/svg11.dtd">
<!-- Generated by graphviz version 2.43.0 (0)
 -->
<!-- Title: %3 Pages: 1 -->
<svg width="307pt" height="1179pt"
 viewBox="0.00 0.00 307.00 1179.00" xmlns="http://www.w3.org/2000/svg" xmlns:xlink="http://www.w3.org/1999/xlink">
<g id="graph0" class="graph" transform="scale(1 1) rotate(0) translate(4 1175)">
<title>%3</title>
<polygon fill="white" stroke="transparent" points="-4,4 -4,-1175 303,-1175 303,4 -4,4"/>
<!-- permute_36 -->
<g id="node1" class="node">
<title>permute_36</title>
<polygon fill="#dcdcdc" stroke="black" points="246.5,-325 52.5,-325 52.5,-248 246.5,-248 246.5,-325"/>
<polygon fill="none" stroke="black" points="53.5,-248.5 53.5,-323.5 172.5,-323.5 172.5,-248.5 53.5,-248.5"/>
<text text-anchor="start" x="92" y="-289" font-family="Linux libertine" font-size="10.00">permute</text>
<text text-anchor="start" x="55.5" y="-278" font-family="Linux libertine" font-size="10.00">duration: 0.000038147s</text>
<polygon fill="none" stroke="black" points="173.5,-286.5 173.5,-323.5 245.5,-323.5 245.5,-286.5 173.5,-286.5"/>
<text text-anchor="start" x="191" y="-313.5" font-family="Linux libertine" font-size="10.00">Input: 0</text>
<text text-anchor="start" x="175.5" y="-302.5" font-family="Linux libertine" font-size="10.00">(8, 56, 56, 64)</text>
<text text-anchor="start" x="175.5" y="-291.5" font-family="Linux libertine" font-size="10.00">torch.bfloat16</text>
<polygon fill="none" stroke="black" points="173.5,-248.5 173.5,-285.5 245.5,-285.5 245.5,-248.5 173.5,-248.5"/>
<text text-anchor="start" x="186.5" y="-275.5" font-family="Linux libertine" font-size="10.00">Output: 0</text>
<text text-anchor="start" x="175.5" y="-264.5" font-family="Linux libertine" font-size="10.00">(8, 64, 56, 56)</text>
<text text-anchor="start" x="175.5" y="-253.5" font-family="Linux libertine" font-size="10.00">torch.bfloat16</text>
</g>
<!-- reshape_37 -->
<g id="node6" class="node">
<title>reshape_37</title>
<polygon fill="#dcdcdc" stroke="black" points="246.5,-201 52.5,-201 52.5,-124 246.5,-124 246.5,-201"/>
<polygon fill="none" stroke="black" points="53.5,-124.5 53.5,-199.5 172.5,-199.5 172.5,-124.5 53.5,-124.5"/>
<text text-anchor="start" x="93" y="-165" font-family="Linux libertine" font-size="10.00">reshape</text>
<text text-anchor="start" x="55.5" y="-154" font-family="Linux libertine" font-size="10.00">duration: 0.000016451s</text>
<polygon fill="none" stroke="black" points="173.5,-162.5 173.5,-199.5 245.5,-199.5 245.5,-162.5 173.5,-162.5"/>
<text text-anchor="start" x="191" y="-189.5" font-family="Linux libertine" font-size="10.00">Input: 0</text>
<text text-anchor="start" x="175.5" y="-178.5" font-family="Linux libertine" font-size="10.00">(8, 64, 56, 56)</text>
<text text-anchor="start" x="175.5" y="-167.5" font-family="Linux libertine" font-size="10.00">torch.bfloat16</text>
<polygon fill="none" stroke="black" points="173.5,-124.5 173.5,-161.5 245.5,-161.5 245.5,-124.5 173.5,-124.5"/>
<text text-anchor="start" x="186.5" y="-151.5" font-family="Linux libertine" font-size="10.00">Output: 0</text>
<text text-anchor="start" x="175.5" y="-140.5" font-family="Linux libertine" font-size="10.00">(8, 64, 56, 56)</text>
<text text-anchor="start" x="175.5" y="-129.5" font-family="Linux libertine" font-size="10.00">torch.bfloat16</text>
</g>
<!-- permute_36&#45;&gt;reshape_37 -->
<g id="edge5" class="edge">
<title>permute_36&#45;&gt;reshape_37</title>
<path fill="none" stroke="black" d="M149.5,-247.9C149.5,-236.3 149.5,-223.38 149.5,-211.2"/>
<polygon fill="black" stroke="black" points="153,-211.19 149.5,-201.19 146,-211.19 153,-211.19"/>
<text text-anchor="middle" x="165" y="-222" font-family="Times,serif" font-size="10.00">0 &#45;&gt; 0</text>
</g>
<!-- torch_input_14 -->
<g id="node2" class="node">
<title>torch_input_14</title>
<polygon fill="#dcdcdc" stroke="black" points="186.5,-1171 112.5,-1171 112.5,-1116 186.5,-1116 186.5,-1171"/>
<polygon fill="none" stroke="black" points="113.5,-1154.5 113.5,-1169.5 185.5,-1169.5 185.5,-1154.5 113.5,-1154.5"/>
<text text-anchor="start" x="119.5" y="-1159.5" font-family="Linux libertine" font-size="10.00">torch.Tensor</text>
<polygon fill="none" stroke="black" points="113.5,-1116.5 113.5,-1153.5 185.5,-1153.5 185.5,-1116.5 113.5,-1116.5"/>
<text text-anchor="start" x="126.5" y="-1143.5" font-family="Linux libertine" font-size="10.00">Output: 0</text>
<text text-anchor="start" x="115.5" y="-1132.5" font-family="Linux libertine" font-size="10.00">(8, 56, 56, 64)</text>
<text text-anchor="start" x="118.5" y="-1121.5" font-family="Linux libertine" font-size="10.00">torch.float32</text>
</g>
<!-- ttnn.from_torch_21 -->
<g id="node4" class="node">
<title>ttnn.from_torch_21</title>
<polygon fill="#dcdcdc" stroke="black" points="242.5,-1069 56.5,-1069 56.5,-992 242.5,-992 242.5,-1069"/>
<polygon fill="none" stroke="black" points="57.5,-992.5 57.5,-1067.5 137.5,-1067.5 137.5,-992.5 57.5,-992.5"/>
<text text-anchor="start" x="59.5" y="-1027.5" font-family="Linux libertine" font-size="10.00">ttnn.from_torch</text>
<polygon fill="none" stroke="black" points="138.5,-1030.5 138.5,-1067.5 241.5,-1067.5 241.5,-1030.5 138.5,-1030.5"/>
<text text-anchor="start" x="171.5" y="-1057.5" font-family="Linux libertine" font-size="10.00">Input: 0</text>
<text text-anchor="start" x="156" y="-1046.5" font-family="Linux libertine" font-size="10.00">(8, 56, 56, 64)</text>
<text text-anchor="start" x="159" y="-1035.5" font-family="Linux libertine" font-size="10.00">torch.float32</text>
<polygon fill="none" stroke="black" points="138.5,-992.5 138.5,-1029.5 241.5,-1029.5 241.5,-992.5 138.5,-992.5"/>
<text text-anchor="start" x="167" y="-1019.5" font-family="Linux libertine" font-size="10.00">Output: 0</text>
<text text-anchor="start" x="156" y="-1008.5" font-family="Linux libertine" font-size="10.00">(8, 56, 56, 64)</text>
<text text-anchor="start" x="140.5" y="-997.5" font-family="Linux libertine" font-size="10.00">DataType.BFLOAT16</text>
</g>
<!-- torch_input_14&#45;&gt;ttnn.from_torch_21 -->
<g id="edge3" class="edge">
<title>torch_input_14&#45;&gt;ttnn.from_torch_21</title>
<path fill="none" stroke="black" d="M149.5,-1115.91C149.5,-1104.99 149.5,-1091.99 149.5,-1079.51"/>
<polygon fill="black" stroke="black" points="153,-1079.2 149.5,-1069.2 146,-1079.2 153,-1079.2"/>
<text text-anchor="middle" x="165" y="-1090" font-family="Times,serif" font-size="10.00">0 &#45;&gt; 0</text>
</g>
<!-- to_38 -->
<g id="node3" class="node">
<title>to_38</title>
<polygon fill="#dcdcdc" stroke="black" points="246.5,-77 52.5,-77 52.5,0 246.5,0 246.5,-77"/>
<polygon fill="none" stroke="black" points="53.5,-0.5 53.5,-75.5 172.5,-75.5 172.5,-0.5 53.5,-0.5"/>
<text text-anchor="start" x="108" y="-41" font-family="Linux libertine" font-size="10.00">to</text>
<text text-anchor="start" x="55.5" y="-30" font-family="Linux libertine" font-size="10.00">duration: 0.014553308s</text>
<polygon fill="none" stroke="black" points="173.5,-38.5 173.5,-75.5 245.5,-75.5 245.5,-38.5 173.5,-38.5"/>
<text text-anchor="start" x="191" y="-65.5" font-family="Linux libertine" font-size="10.00">Input: 0</text>
<text text-anchor="start" x="175.5" y="-54.5" font-family="Linux libertine" font-size="10.00">(8, 64, 56, 56)</text>
<text text-anchor="start" x="175.5" y="-43.5" font-family="Linux libertine" font-size="10.00">torch.bfloat16</text>
<polygon fill="none" stroke="black" points="173.5,-0.5 173.5,-37.5 245.5,-37.5 245.5,-0.5 173.5,-0.5"/>
<text text-anchor="start" x="186.5" y="-27.5" font-family="Linux libertine" font-size="10.00">Output: 0</text>
<text text-anchor="start" x="175.5" y="-16.5" font-family="Linux libertine" font-size="10.00">(8, 64, 56, 56)</text>
<text text-anchor="start" x="178.5" y="-5.5" font-family="Linux libertine" font-size="10.00">torch.float32</text>
</g>
<!-- ttnn.Conv2d.copy_input_to_device_24 -->
<g id="node10" class="node">
<title>ttnn.Conv2d.copy_input_to_device_24</title>
<polygon fill="#dcdcdc" stroke="black" points="289,-945 10,-945 10,-868 289,-868 289,-945"/>
<polygon fill="none" stroke="black" points="11.5,-868.5 11.5,-943.5 184.5,-943.5 184.5,-868.5 11.5,-868.5"/>
<text text-anchor="start" x="13.5" y="-903.5" font-family="Linux libertine" font-size="10.00">ttnn.Conv2d.copy_input_to_device</text>
<polygon fill="none" stroke="black" points="185.5,-906.5 185.5,-943.5 288.5,-943.5 288.5,-906.5 185.5,-906.5"/>
<text text-anchor="start" x="218.5" y="-933.5" font-family="Linux libertine" font-size="10.00">Input: 0</text>
<text text-anchor="start" x="203" y="-922.5" font-family="Linux libertine" font-size="10.00">(8, 56, 56, 64)</text>
<text text-anchor="start" x="187.5" y="-911.5" font-family="Linux libertine" font-size="10.00">DataType.BFLOAT16</text>
<polygon fill="none" stroke="black" points="185.5,-868.5 185.5,-905.5 288.5,-905.5 288.5,-868.5 185.5,-868.5"/>
<text text-anchor="start" x="214" y="-895.5" font-family="Linux libertine" font-size="10.00">Output: 0</text>
<text text-anchor="start" x="197" y="-884.5" font-family="Linux libertine" font-size="10.00">(1, 1, 25088, 64)</text>
<text text-anchor="start" x="187.5" y="-873.5" font-family="Linux libertine" font-size="10.00">DataType.BFLOAT16</text>
</g>
<!-- ttnn.from_torch_21&#45;&gt;ttnn.Conv2d.copy_input_to_device_24 -->
<g id="edge9" class="edge">
<title>ttnn.from_torch_21&#45;&gt;ttnn.Conv2d.copy_input_to_device_24</title>
<path fill="none" stroke="black" d="M149.5,-991.9C149.5,-980.3 149.5,-967.38 149.5,-955.2"/>
<polygon fill="black" stroke="black" points="153,-955.19 149.5,-945.19 146,-955.19 153,-955.19"/>
<text text-anchor="middle" x="165" y="-966" font-family="Times,serif" font-size="10.00">0 &#45;&gt; 0</text>
</g>
<!-- ttnn.Conv2d.__call___30 -->
<g id="node5" class="node">
<title>ttnn.Conv2d.__call___30</title>
<polygon fill="#dcdcdc" stroke="black" points="255,-697 44,-697 44,-620 255,-620 255,-697"/>
<polygon fill="none" stroke="black" points="45.5,-620.5 45.5,-695.5 150.5,-695.5 150.5,-620.5 45.5,-620.5"/>
<text text-anchor="start" x="47.5" y="-655.5" font-family="Linux libertine" font-size="10.00">ttnn.Conv2d.__call__</text>
<polygon fill="none" stroke="black" points="151.5,-658.5 151.5,-695.5 254.5,-695.5 254.5,-658.5 151.5,-658.5"/>
<text text-anchor="start" x="184.5" y="-685.5" font-family="Linux libertine" font-size="10.00">Input: 0</text>
<text text-anchor="start" x="163" y="-674.5" font-family="Linux libertine" font-size="10.00">(1, 1, 25088, 64)</text>
<text text-anchor="start" x="153.5" y="-663.5" font-family="Linux libertine" font-size="10.00">DataType.BFLOAT16</text>
<polygon fill="none" stroke="black" points="151.5,-620.5 151.5,-657.5 254.5,-657.5 254.5,-620.5 151.5,-620.5"/>
<text text-anchor="start" x="180" y="-647.5" font-family="Linux libertine" font-size="10.00">Output: 0</text>
<text text-anchor="start" x="163" y="-636.5" font-family="Linux libertine" font-size="10.00">(1, 1, 25088, 64)</text>
<text text-anchor="start" x="153.5" y="-625.5" font-family="Linux libertine" font-size="10.00">DataType.BFLOAT16</text>
</g>
<!-- ttnn.Conv2d.copy_output_from_device_33 -->
<g id="node8" class="node">
<title>ttnn.Conv2d.copy_output_from_device_33</title>
<polygon fill="#dcdcdc" stroke="black" points="299,-573 0,-573 0,-496 299,-496 299,-573"/>
<polygon fill="none" stroke="black" points="1.5,-496.5 1.5,-571.5 194.5,-571.5 194.5,-496.5 1.5,-496.5"/>
<text text-anchor="start" x="3.5" y="-531.5" font-family="Linux libertine" font-size="10.00">ttnn.Conv2d.copy_output_from_device</text>
<polygon fill="none" stroke="black" points="195.5,-534.5 195.5,-571.5 298.5,-571.5 298.5,-534.5 195.5,-534.5"/>
<text text-anchor="start" x="228.5" y="-561.5" font-family="Linux libertine" font-size="10.00">Input: 0</text>
<text text-anchor="start" x="207" y="-550.5" font-family="Linux libertine" font-size="10.00">(1, 1, 25088, 64)</text>
<text text-anchor="start" x="197.5" y="-539.5" font-family="Linux libertine" font-size="10.00">DataType.BFLOAT16</text>
<polygon fill="none" stroke="black" points="195.5,-496.5 195.5,-533.5 298.5,-533.5 298.5,-496.5 195.5,-496.5"/>
<text text-anchor="start" x="224" y="-523.5" font-family="Linux libertine" font-size="10.00">Output: 0</text>
<text text-anchor="start" x="213" y="-512.5" font-family="Linux libertine" font-size="10.00">(8, 56, 56, 64)</text>
<text text-anchor="start" x="197.5" y="-501.5" font-family="Linux libertine" font-size="10.00">DataType.BFLOAT16</text>
</g>
<!-- ttnn.Conv2d.__call___30&#45;&gt;ttnn.Conv2d.copy_output_from_device_33 -->
<g id="edge7" class="edge">
<title>ttnn.Conv2d.__call___30&#45;&gt;ttnn.Conv2d.copy_output_from_device_33</title>
<path fill="none" stroke="black" d="M149.5,-619.9C149.5,-608.3 149.5,-595.38 149.5,-583.2"/>
<polygon fill="black" stroke="black" points="153,-583.19 149.5,-573.19 146,-583.19 153,-583.19"/>
<text text-anchor="middle" x="165" y="-594" font-family="Times,serif" font-size="10.00">0 &#45;&gt; 0</text>
</g>
<!-- reshape_37&#45;&gt;to_38 -->
<g id="edge2" class="edge">
<title>reshape_37&#45;&gt;to_38</title>
<path fill="none" stroke="black" d="M149.5,-123.9C149.5,-112.3 149.5,-99.38 149.5,-87.2"/>
<polygon fill="black" stroke="black" points="153,-87.19 149.5,-77.19 146,-87.19 153,-87.19"/>
<text text-anchor="middle" x="165" y="-98" font-family="Times,serif" font-size="10.00">0 &#45;&gt; 0</text>
</g>
<!-- ttnn.to_torch_35 -->
<g id="node7" class="node">
<title>ttnn.to_torch_35</title>
<polygon fill="#dcdcdc" stroke="black" points="236,-449 63,-449 63,-372 236,-372 236,-449"/>
<polygon fill="none" stroke="black" points="64.5,-372.5 64.5,-447.5 131.5,-447.5 131.5,-372.5 64.5,-372.5"/>
<text text-anchor="start" x="66.5" y="-407.5" font-family="Linux libertine" font-size="10.00">ttnn.to_torch</text>
<polygon fill="none" stroke="black" points="132.5,-410.5 132.5,-447.5 235.5,-447.5 235.5,-410.5 132.5,-410.5"/>
<text text-anchor="start" x="165.5" y="-437.5" font-family="Linux libertine" font-size="10.00">Input: 0</text>
<text text-anchor="start" x="150" y="-426.5" font-family="Linux libertine" font-size="10.00">(8, 56, 56, 64)</text>
<text text-anchor="start" x="134.5" y="-415.5" font-family="Linux libertine" font-size="10.00">DataType.BFLOAT16</text>
<polygon fill="none" stroke="black" points="132.5,-372.5 132.5,-409.5 235.5,-409.5 235.5,-372.5 132.5,-372.5"/>
<text text-anchor="start" x="161" y="-399.5" font-family="Linux libertine" font-size="10.00">Output: 0</text>
<text text-anchor="start" x="150" y="-388.5" font-family="Linux libertine" font-size="10.00">(8, 56, 56, 64)</text>
<text text-anchor="start" x="150" y="-377.5" font-family="Linux libertine" font-size="10.00">torch.bfloat16</text>
</g>
<!-- ttnn.to_torch_35&#45;&gt;permute_36 -->
<g id="edge1" class="edge">
<title>ttnn.to_torch_35&#45;&gt;permute_36</title>
<path fill="none" stroke="black" d="M149.5,-371.9C149.5,-360.3 149.5,-347.38 149.5,-335.2"/>
<polygon fill="black" stroke="black" points="153,-335.19 149.5,-325.19 146,-335.19 153,-335.19"/>
<text text-anchor="middle" x="165" y="-346" font-family="Times,serif" font-size="10.00">0 &#45;&gt; 0</text>
</g>
<!-- ttnn.Conv2d.copy_output_from_device_33&#45;&gt;ttnn.to_torch_35 -->
<g id="edge6" class="edge">
<title>ttnn.Conv2d.copy_output_from_device_33&#45;&gt;ttnn.to_torch_35</title>
<path fill="none" stroke="black" d="M149.5,-495.9C149.5,-484.3 149.5,-471.38 149.5,-459.2"/>
<polygon fill="black" stroke="black" points="153,-459.19 149.5,-449.19 146,-459.19 153,-459.19"/>
<text text-anchor="middle" x="165" y="-470" font-family="Times,serif" font-size="10.00">0 &#45;&gt; 0</text>
</g>
<!-- ttnn.Conv2d.__call___27 -->
<g id="node9" class="node">
<title>ttnn.Conv2d.__call___27</title>
<polygon fill="#dcdcdc" stroke="black" points="255,-821 44,-821 44,-744 255,-744 255,-821"/>
<polygon fill="none" stroke="black" points="45.5,-744.5 45.5,-819.5 150.5,-819.5 150.5,-744.5 45.5,-744.5"/>
<text text-anchor="start" x="47.5" y="-779.5" font-family="Linux libertine" font-size="10.00">ttnn.Conv2d.__call__</text>
<polygon fill="none" stroke="black" points="151.5,-782.5 151.5,-819.5 254.5,-819.5 254.5,-782.5 151.5,-782.5"/>
<text text-anchor="start" x="184.5" y="-809.5" font-family="Linux libertine" font-size="10.00">Input: 0</text>
<text text-anchor="start" x="163" y="-798.5" font-family="Linux libertine" font-size="10.00">(1, 1, 25088, 64)</text>
<text text-anchor="start" x="153.5" y="-787.5" font-family="Linux libertine" font-size="10.00">DataType.BFLOAT16</text>
<polygon fill="none" stroke="black" points="151.5,-744.5 151.5,-781.5 254.5,-781.5 254.5,-744.5 151.5,-744.5"/>
<text text-anchor="start" x="180" y="-771.5" font-family="Linux libertine" font-size="10.00">Output: 0</text>
<text text-anchor="start" x="163" y="-760.5" font-family="Linux libertine" font-size="10.00">(1, 1, 25088, 64)</text>
<text text-anchor="start" x="153.5" y="-749.5" font-family="Linux libertine" font-size="10.00">DataType.BFLOAT16</text>
</g>
<!-- ttnn.Conv2d.__call___27&#45;&gt;ttnn.Conv2d.__call___30 -->
<g id="edge4" class="edge">
<title>ttnn.Conv2d.__call___27&#45;&gt;ttnn.Conv2d.__call___30</title>
<path fill="none" stroke="black" d="M149.5,-743.9C149.5,-732.3 149.5,-719.38 149.5,-707.2"/>
<polygon fill="black" stroke="black" points="153,-707.19 149.5,-697.19 146,-707.19 153,-707.19"/>
<text text-anchor="middle" x="165" y="-718" font-family="Times,serif" font-size="10.00">0 &#45;&gt; 0</text>
</g>
<!-- ttnn.Conv2d.copy_input_to_device_24&#45;&gt;ttnn.Conv2d.__call___27 -->
<g id="edge8" class="edge">
<title>ttnn.Conv2d.copy_input_to_device_24&#45;&gt;ttnn.Conv2d.__call___27</title>
<path fill="none" stroke="black" d="M149.5,-867.9C149.5,-856.3 149.5,-843.38 149.5,-831.2"/>
<polygon fill="black" stroke="black" points="153,-831.19 149.5,-821.19 146,-831.19 153,-831.19"/>
<text text-anchor="middle" x="165" y="-842" font-family="Times,serif" font-size="10.00">0 &#45;&gt; 0</text>
</g>
</g>
</svg>
