<?xml version="1.0" encoding="UTF-8" standalone="no"?>
<!DOCTYPE svg PUBLIC "-//W3C//DTD SVG 1.1//EN"
 "http://www.w3.org/Graphics/SVG/1.1/DTD/svg11.dtd">
<!-- Generated by graphviz version 2.43.0 (0)
 -->
<!-- Title: %3 Pages: 1 -->
<svg width="196pt" height="187pt"
 viewBox="0.00 0.00 196.00 187.00" xmlns="http://www.w3.org/2000/svg" xmlns:xlink="http://www.w3.org/1999/xlink">
<g id="graph0" class="graph" transform="scale(1 1) rotate(0) translate(4 183)">
<title>%3</title>
<polygon fill="white" stroke="transparent" points="-4,4 -4,-183 192,-183 192,4 -4,4"/>
<!-- torch_input_0 -->
<g id="node1" class="node">
<title>torch_input_0</title>
<polygon fill="#dcdcdc" stroke="black" points="123.5,-179 64.5,-179 64.5,-124 123.5,-124 123.5,-179"/>
<polygon fill="none" stroke="black" points="66,-162.5 66,-177.5 123,-177.5 123,-162.5 66,-162.5"/>
<text text-anchor="start" x="77" y="-167.5" font-family="Linux libertine" font-size="10.00">randint</text>
<polygon fill="none" stroke="black" points="66,-124.5 66,-161.5 123,-161.5 123,-124.5 66,-124.5"/>
<text text-anchor="start" x="71.5" y="-151.5" font-family="Linux libertine" font-size="10.00">Output: 0</text>
<text text-anchor="start" x="78.5" y="-140.5" font-family="Linux libertine" font-size="10.00">(1, 64)</text>
<text text-anchor="start" x="68" y="-129.5" font-family="Linux libertine" font-size="10.00">torch.int64</text>
</g>
<!-- exp_1 -->
<g id="node2" class="node">
<title>exp_1</title>
<polygon fill="#dcdcdc" stroke="black" points="188,-77 0,-77 0,0 188,0 188,-77"/>
<polygon fill="none" stroke="black" points="1,-0.5 1,-75.5 120,-75.5 120,-0.5 1,-0.5"/>
<text text-anchor="start" x="51" y="-41" font-family="Linux libertine" font-size="10.00">exp</text>
<text text-anchor="start" x="3" y="-30" font-family="Linux libertine" font-size="10.00">duration: 0.000306606s</text>
<polygon fill="none" stroke="black" points="121,-38.5 121,-75.5 187,-75.5 187,-38.5 121,-38.5"/>
<text text-anchor="start" x="135.5" y="-65.5" font-family="Linux libertine" font-size="10.00">Input: 0</text>
<text text-anchor="start" x="138" y="-54.5" font-family="Linux libertine" font-size="10.00">(1, 64)</text>
<text text-anchor="start" x="127.5" y="-43.5" font-family="Linux libertine" font-size="10.00">torch.int64</text>
<polygon fill="none" stroke="black" points="121,-0.5 121,-37.5 187,-37.5 187,-0.5 121,-0.5"/>
<text text-anchor="start" x="131" y="-27.5" font-family="Linux libertine" font-size="10.00">Output: 0</text>
<text text-anchor="start" x="138" y="-16.5" font-family="Linux libertine" font-size="10.00">(1, 64)</text>
<text text-anchor="start" x="123" y="-5.5" font-family="Linux libertine" font-size="10.00">torch.float32</text>
</g>
<!-- torch_input_0&#45;&gt;exp_1 -->
<g id="edge1" class="edge">
<title>torch_input_0&#45;&gt;exp_1</title>
<path fill="none" stroke="black" d="M94,-123.91C94,-112.99 94,-99.99 94,-87.51"/>
<polygon fill="black" stroke="black" points="97.5,-87.2 94,-77.2 90.5,-87.2 97.5,-87.2"/>
<text text-anchor="middle" x="109.5" y="-98" font-family="Times,serif" font-size="10.00">0 &#45;&gt; 0</text>
</g>
</g>
</svg>
