<?xml version="1.0" encoding="UTF-8" standalone="no"?>
<!DOCTYPE svg PUBLIC "-//W3C//DTD SVG 1.1//EN"
 "http://www.w3.org/Graphics/SVG/1.1/DTD/svg11.dtd">
<!-- Generated by graphviz version 2.43.0 (0)
 -->
<!-- Title: %3 Pages: 1 -->
<svg width="180pt" height="435pt"
 viewBox="0.00 0.00 180.00 435.00" xmlns="http://www.w3.org/2000/svg" xmlns:xlink="http://www.w3.org/1999/xlink">
<g id="graph0" class="graph" transform="scale(1 1) rotate(0) translate(4 431)">
<title>%3</title>
<polygon fill="white" stroke="transparent" points="-4,4 -4,-431 176,-431 176,4 -4,4"/>
<!-- ttnn.to_torch_15 -->
<g id="node1" class="node">
<title>ttnn.to_torch_15</title>
<polygon fill="#dcdcdc" stroke="black" points="165.5,-77 6.5,-77 6.5,0 165.5,0 165.5,-77"/>
<polygon fill="none" stroke="black" points="8,-0.5 8,-75.5 75,-75.5 75,-0.5 8,-0.5"/>
<text text-anchor="start" x="10" y="-35.5" font-family="Linux libertine" font-size="10.00">ttnn.to_torch</text>
<polygon fill="none" stroke="black" points="76,-38.5 76,-75.5 165,-75.5 165,-38.5 76,-38.5"/>
<text text-anchor="start" x="102" y="-65.5" font-family="Linux libertine" font-size="10.00">Input: 0</text>
<text text-anchor="start" x="98.5" y="-54.5" font-family="Linux libertine" font-size="10.00">(2, 4, 32)</text>
<text text-anchor="start" x="78" y="-43.5" font-family="Linux libertine" font-size="10.00">DataType.UINT32</text>
<polygon fill="none" stroke="black" points="76,-0.5 76,-37.5 165,-37.5 165,-0.5 76,-0.5"/>
<text text-anchor="start" x="97.5" y="-27.5" font-family="Linux libertine" font-size="10.00">Output: 0</text>
<text text-anchor="start" x="98.5" y="-16.5" font-family="Linux libertine" font-size="10.00">(2, 4, 32)</text>
<text text-anchor="start" x="94" y="-5.5" font-family="Linux libertine" font-size="10.00">torch.int32</text>
</g>
<!-- ttnn.reshape_13 -->
<g id="node2" class="node">
<title>ttnn.reshape_13</title>
<polygon fill="#dcdcdc" stroke="black" points="165,-201 7,-201 7,-124 165,-124 165,-201"/>
<polygon fill="none" stroke="black" points="8,-124.5 8,-199.5 74,-199.5 74,-124.5 8,-124.5"/>
<text text-anchor="start" x="10" y="-159.5" font-family="Linux libertine" font-size="10.00">ttnn.reshape</text>
<polygon fill="none" stroke="black" points="75,-162.5 75,-199.5 164,-199.5 164,-162.5 75,-162.5"/>
<text text-anchor="start" x="101" y="-189.5" font-family="Linux libertine" font-size="10.00">Input: 0</text>
<text text-anchor="start" x="103.5" y="-178.5" font-family="Linux libertine" font-size="10.00">(4, 64)</text>
<text text-anchor="start" x="77" y="-167.5" font-family="Linux libertine" font-size="10.00">DataType.UINT32</text>
<polygon fill="none" stroke="black" points="75,-124.5 75,-161.5 164,-161.5 164,-124.5 75,-124.5"/>
<text text-anchor="start" x="96.5" y="-151.5" font-family="Linux libertine" font-size="10.00">Output: 0</text>
<text text-anchor="start" x="97.5" y="-140.5" font-family="Linux libertine" font-size="10.00">(2, 4, 32)</text>
<text text-anchor="start" x="77" y="-129.5" font-family="Linux libertine" font-size="10.00">DataType.UINT32</text>
</g>
<!-- ttnn.reshape_13&#45;&gt;ttnn.to_torch_15 -->
<g id="edge1" class="edge">
<title>ttnn.reshape_13&#45;&gt;ttnn.to_torch_15</title>
<path fill="none" stroke="black" d="M86,-123.9C86,-112.3 86,-99.38 86,-87.2"/>
<polygon fill="black" stroke="black" points="89.5,-87.19 86,-77.19 82.5,-87.19 89.5,-87.19"/>
<text text-anchor="middle" x="101.5" y="-98" font-family="Times,serif" font-size="10.00">0 &#45;&gt; 0</text>
</g>
<!-- ttnn.from_torch_10 -->
<g id="node3" class="node">
<title>ttnn.from_torch_10</title>
<polygon fill="#dcdcdc" stroke="black" points="172,-325 0,-325 0,-248 172,-248 172,-325"/>
<polygon fill="none" stroke="black" points="1,-248.5 1,-323.5 81,-323.5 81,-248.5 1,-248.5"/>
<text text-anchor="start" x="3" y="-283.5" font-family="Linux libertine" font-size="10.00">ttnn.from_torch</text>
<polygon fill="none" stroke="black" points="82,-286.5 82,-323.5 171,-323.5 171,-286.5 82,-286.5"/>
<text text-anchor="start" x="108" y="-313.5" font-family="Linux libertine" font-size="10.00">Input: 0</text>
<text text-anchor="start" x="110.5" y="-302.5" font-family="Linux libertine" font-size="10.00">(4, 64)</text>
<text text-anchor="start" x="100" y="-291.5" font-family="Linux libertine" font-size="10.00">torch.int64</text>
<polygon fill="none" stroke="black" points="82,-248.5 82,-285.5 171,-285.5 171,-248.5 82,-248.5"/>
<text text-anchor="start" x="103.5" y="-275.5" font-family="Linux libertine" font-size="10.00">Output: 0</text>
<text text-anchor="start" x="110.5" y="-264.5" font-family="Linux libertine" font-size="10.00">(4, 64)</text>
<text text-anchor="start" x="84" y="-253.5" font-family="Linux libertine" font-size="10.00">DataType.UINT32</text>
</g>
<!-- ttnn.from_torch_10&#45;&gt;ttnn.reshape_13 -->
<g id="edge2" class="edge">
<title>ttnn.from_torch_10&#45;&gt;ttnn.reshape_13</title>
<path fill="none" stroke="black" d="M86,-247.9C86,-236.3 86,-223.38 86,-211.2"/>
<polygon fill="black" stroke="black" points="89.5,-211.19 86,-201.19 82.5,-211.19 89.5,-211.19"/>
<text text-anchor="middle" x="101.5" y="-222" font-family="Times,serif" font-size="10.00">0 &#45;&gt; 0</text>
</g>
<!-- torch_input_2 -->
<g id="node4" class="node">
<title>torch_input_2</title>
<polygon fill="#dcdcdc" stroke="black" points="115.5,-427 56.5,-427 56.5,-372 115.5,-372 115.5,-427"/>
<polygon fill="none" stroke="black" points="58,-410.5 58,-425.5 115,-425.5 115,-410.5 58,-410.5"/>
<text text-anchor="start" x="69" y="-415.5" font-family="Linux libertine" font-size="10.00">randint</text>
<polygon fill="none" stroke="black" points="58,-372.5 58,-409.5 115,-409.5 115,-372.5 58,-372.5"/>
<text text-anchor="start" x="63.5" y="-399.5" font-family="Linux libertine" font-size="10.00">Output: 0</text>
<text text-anchor="start" x="70.5" y="-388.5" font-family="Linux libertine" font-size="10.00">(4, 64)</text>
<text text-anchor="start" x="60" y="-377.5" font-family="Linux libertine" font-size="10.00">torch.int64</text>
</g>
<!-- torch_input_2&#45;&gt;ttnn.from_torch_10 -->
<g id="edge3" class="edge">
<title>torch_input_2&#45;&gt;ttnn.from_torch_10</title>
<path fill="none" stroke="black" d="M86,-371.91C86,-360.99 86,-347.99 86,-335.51"/>
<polygon fill="black" stroke="black" points="89.5,-335.2 86,-325.2 82.5,-335.2 89.5,-335.2"/>
<text text-anchor="middle" x="101.5" y="-346" font-family="Times,serif" font-size="10.00">0 &#45;&gt; 0</text>
</g>
</g>
</svg>
