<?xml version="1.0" encoding="UTF-8" standalone="no"?>
<!DOCTYPE svg PUBLIC "-//W3C//DTD SVG 1.1//EN"
 "http://www.w3.org/Graphics/SVG/1.1/DTD/svg11.dtd">
<!-- Generated by graphviz version 2.43.0 (0)
 -->
<!-- Title: %3 Pages: 1 -->
<svg width="501pt" height="1330pt"
 viewBox="0.00 0.00 501.00 1330.00" xmlns="http://www.w3.org/2000/svg" xmlns:xlink="http://www.w3.org/1999/xlink">
<g id="graph0" class="graph" transform="scale(1 1) rotate(0) translate(4 1326)">
<title>%3</title>
<polygon fill="white" stroke="transparent" points="-4,4 -4,-1326 497,-1326 497,4 -4,4"/>
<g id="clust1" class="cluster">
<title>_34</title>
<polygon fill="#0000ff" fill-opacity="0.501961" stroke="black" points="8,-114 8,-1230 417,-1230 417,-114 8,-114"/>
<text text-anchor="middle" x="212.5" y="-1214.8" font-family="Times,serif" font-size="14.00">BertSelfOutput</text>
<text text-anchor="middle" x="212.5" y="-1199.8" font-family="Times,serif" font-size="14.00">duration: 0.014304161s</text>
</g>
<g id="clust2" class="cluster">
<title>LayerNorm_33</title>
<polygon fill="#ee00ee" fill-opacity="0.501961" stroke="black" points="16,-122 16,-381 409,-381 409,-122 16,-122"/>
<text text-anchor="middle" x="212.5" y="-365.8" font-family="Times,serif" font-size="14.00">LayerNorm</text>
<text text-anchor="middle" x="212.5" y="-350.8" font-family="Times,serif" font-size="14.00">name: LayerNorm</text>
<text text-anchor="middle" x="212.5" y="-335.8" font-family="Times,serif" font-size="14.00">duration: 0.001421452s</text>
</g>
<g id="clust3" class="cluster">
<title>dense_24</title>
<polygon fill="#ee00ee" fill-opacity="0.501961" stroke="black" points="18,-822 18,-1081 370,-1081 370,-822 18,-822"/>
<text text-anchor="middle" x="194" y="-1065.8" font-family="Times,serif" font-size="14.00">Linear</text>
<text text-anchor="middle" x="194" y="-1050.8" font-family="Times,serif" font-size="14.00">name: dense</text>
<text text-anchor="middle" x="194" y="-1035.8" font-family="Times,serif" font-size="14.00">duration: 0.007309198s</text>
</g>
<g id="clust4" class="cluster">
<title>dropout_27</title>
<polygon fill="#ee00ee" fill-opacity="0.501961" stroke="black" points="89,-534 89,-793 293,-793 293,-534 89,-534"/>
<text text-anchor="middle" x="191" y="-777.8" font-family="Times,serif" font-size="14.00">Dropout</text>
<text text-anchor="middle" x="191" y="-762.8" font-family="Times,serif" font-size="14.00">name: dropout</text>
<text text-anchor="middle" x="191" y="-747.8" font-family="Times,serif" font-size="14.00">duration: 0.000376940s</text>
</g>
<!-- ttnn.from_torch_40 -->
<g id="node1" class="node">
<title>ttnn.from_torch_40</title>
<polygon fill="#dcdcdc" stroke="black" points="283.5,-77 104.5,-77 104.5,0 283.5,0 283.5,-77"/>
<polygon fill="none" stroke="black" points="106,-0.5 106,-75.5 186,-75.5 186,-0.5 106,-0.5"/>
<text text-anchor="start" x="108" y="-35.5" font-family="Linux libertine" font-size="10.00">ttnn.from_torch</text>
<polygon fill="none" stroke="black" points="187,-38.5 187,-75.5 283,-75.5 283,-38.5 187,-38.5"/>
<text text-anchor="start" x="216.5" y="-65.5" font-family="Linux libertine" font-size="10.00">Input: 0</text>
<text text-anchor="start" x="207" y="-54.5" font-family="Linux libertine" font-size="10.00">(1, 64, 256)</text>
<text text-anchor="start" x="204" y="-43.5" font-family="Linux libertine" font-size="10.00">torch.float32</text>
<polygon fill="none" stroke="black" points="187,-0.5 187,-37.5 283,-37.5 283,-0.5 187,-0.5"/>
<text text-anchor="start" x="212" y="-27.5" font-family="Linux libertine" font-size="10.00">Output: 0</text>
<text text-anchor="start" x="207" y="-16.5" font-family="Linux libertine" font-size="10.00">(1, 64, 256)</text>
<text text-anchor="start" x="189" y="-5.5" font-family="Linux libertine" font-size="10.00">DataType.FLOAT32</text>
</g>
<!-- _34/LayerNorm_33/torch_parameter_30 -->
<g id="node2" class="node">
<title>_34/LayerNorm_33/torch_parameter_30</title>
<polygon fill="#dcdcdc" stroke="black" points="401,-320 271,-320 271,-254 401,-254 401,-320"/>
<polygon fill="none" stroke="black" points="272,-293 272,-319 400,-319 400,-293 272,-293"/>
<text text-anchor="start" x="289" y="-309" font-family="Linux libertine" font-size="10.00">torch.nn.Parameter</text>
<text text-anchor="start" x="274" y="-298" font-family="Linux libertine" font-size="10.00">name: LayerNorm.weight</text>
<polygon fill="none" stroke="black" points="272,-255 272,-292 400,-292 400,-255 272,-255"/>
<text text-anchor="start" x="313" y="-282" font-family="Linux libertine" font-size="10.00">Output: 0</text>
<text text-anchor="start" x="321.5" y="-271" font-family="Linux libertine" font-size="10.00">(256,)</text>
<text text-anchor="start" x="305" y="-260" font-family="Linux libertine" font-size="10.00">torch.float32</text>
</g>
<!-- _34/LayerNorm_33/layer_norm_32 -->
<g id="node5" class="node">
<title>_34/LayerNorm_33/layer_norm_32</title>
<polygon fill="#dcdcdc" stroke="black" points="355,-207 33,-207 33,-130 355,-130 355,-207"/>
<polygon fill="none" stroke="black" points="34,-130.5 34,-205.5 153,-205.5 153,-130.5 34,-130.5"/>
<text text-anchor="start" x="65.5" y="-171" font-family="Linux libertine" font-size="10.00">layer_norm</text>
<text text-anchor="start" x="36" y="-160" font-family="Linux libertine" font-size="10.00">duration: 0.000286818s</text>
<polygon fill="none" stroke="black" points="154,-168.5 154,-205.5 220,-205.5 220,-168.5 154,-168.5"/>
<text text-anchor="start" x="168.5" y="-195.5" font-family="Linux libertine" font-size="10.00">Input: 0</text>
<text text-anchor="start" x="172.5" y="-184.5" font-family="Linux libertine" font-size="10.00">(256,)</text>
<text text-anchor="start" x="156" y="-173.5" font-family="Linux libertine" font-size="10.00">torch.float32</text>
<polygon fill="none" stroke="black" points="221,-168.5 221,-205.5 287,-205.5 287,-168.5 221,-168.5"/>
<text text-anchor="start" x="235.5" y="-195.5" font-family="Linux libertine" font-size="10.00">Input: 1</text>
<text text-anchor="start" x="239.5" y="-184.5" font-family="Linux libertine" font-size="10.00">(256,)</text>
<text text-anchor="start" x="223" y="-173.5" font-family="Linux libertine" font-size="10.00">torch.float32</text>
<polygon fill="none" stroke="black" points="288,-168.5 288,-205.5 354,-205.5 354,-168.5 288,-168.5"/>
<text text-anchor="start" x="302.5" y="-195.5" font-family="Linux libertine" font-size="10.00">Input: 2</text>
<text text-anchor="start" x="293" y="-184.5" font-family="Linux libertine" font-size="10.00">(1, 64, 256)</text>
<text text-anchor="start" x="290" y="-173.5" font-family="Linux libertine" font-size="10.00">torch.float32</text>
<polygon fill="none" stroke="black" points="154,-130.5 154,-167.5 354,-167.5 354,-130.5 154,-130.5"/>
<text text-anchor="start" x="231" y="-157.5" font-family="Linux libertine" font-size="10.00">Output: 0</text>
<text text-anchor="start" x="226" y="-146.5" font-family="Linux libertine" font-size="10.00">(1, 64, 256)</text>
<text text-anchor="start" x="223" y="-135.5" font-family="Linux libertine" font-size="10.00">torch.float32</text>
</g>
<!-- _34/LayerNorm_33/torch_parameter_30&#45;&gt;_34/LayerNorm_33/layer_norm_32 -->
<g id="edge1" class="edge">
<title>_34/LayerNorm_33/torch_parameter_30&#45;&gt;_34/LayerNorm_33/layer_norm_32</title>
<path fill="none" stroke="black" d="M296.82,-253.86C281.65,-241.41 264.04,-226.97 247.73,-213.58"/>
<polygon fill="black" stroke="black" points="249.79,-210.74 239.84,-207.11 245.35,-216.16 249.79,-210.74"/>
<text text-anchor="middle" x="288.5" y="-228" font-family="Times,serif" font-size="10.00" fill="white">0 &#45;&gt; 1</text>
</g>
<!-- _34/LayerNorm_33/torch_parameter_31 -->
<g id="node3" class="node">
<title>_34/LayerNorm_33/torch_parameter_31</title>
<polygon fill="#dcdcdc" stroke="black" points="253,-320 135,-320 135,-254 253,-254 253,-320"/>
<polygon fill="none" stroke="black" points="136,-293 136,-319 252,-319 252,-293 136,-293"/>
<text text-anchor="start" x="147" y="-309" font-family="Linux libertine" font-size="10.00">torch.nn.Parameter</text>
<text text-anchor="start" x="138" y="-298" font-family="Linux libertine" font-size="10.00">name: LayerNorm.bias</text>
<polygon fill="none" stroke="black" points="136,-255 136,-292 252,-292 252,-255 136,-255"/>
<text text-anchor="start" x="171" y="-282" font-family="Linux libertine" font-size="10.00">Output: 0</text>
<text text-anchor="start" x="179.5" y="-271" font-family="Linux libertine" font-size="10.00">(256,)</text>
<text text-anchor="start" x="163" y="-260" font-family="Linux libertine" font-size="10.00">torch.float32</text>
</g>
<!-- _34/LayerNorm_33/torch_parameter_31&#45;&gt;_34/LayerNorm_33/layer_norm_32 -->
<g id="edge2" class="edge">
<title>_34/LayerNorm_33/torch_parameter_31&#45;&gt;_34/LayerNorm_33/layer_norm_32</title>
<path fill="none" stroke="black" d="M194,-253.86C194,-242.6 194,-229.7 194,-217.43"/>
<polygon fill="black" stroke="black" points="197.5,-217.32 194,-207.32 190.5,-217.32 197.5,-217.32"/>
<text text-anchor="middle" x="209.5" y="-228" font-family="Times,serif" font-size="10.00" fill="white">0 &#45;&gt; 2</text>
</g>
<!-- _34/LayerNorm_33/module_input_29 -->
<g id="node4" class="node">
<title>_34/LayerNorm_33/module_input_29</title>
<polygon fill="#dcdcdc" stroke="black" points="116.5,-320 23.5,-320 23.5,-254 116.5,-254 116.5,-320"/>
<polygon fill="none" stroke="black" points="25,-293 25,-319 116,-319 116,-293 25,-293"/>
<text text-anchor="start" x="27" y="-309" font-family="Linux libertine" font-size="10.00">TorchModuleInput</text>
<text text-anchor="start" x="41" y="-298" font-family="Linux libertine" font-size="10.00">name: input</text>
<polygon fill="none" stroke="black" points="25,-255 25,-292 116,-292 116,-255 25,-255"/>
<text text-anchor="start" x="47.5" y="-282" font-family="Linux libertine" font-size="10.00">Output: 0</text>
<text text-anchor="start" x="42.5" y="-271" font-family="Linux libertine" font-size="10.00">(1, 64, 256)</text>
<text text-anchor="start" x="39.5" y="-260" font-family="Linux libertine" font-size="10.00">torch.float32</text>
</g>
<!-- _34/LayerNorm_33/module_input_29&#45;&gt;_34/LayerNorm_33/layer_norm_32 -->
<g id="edge3" class="edge">
<title>_34/LayerNorm_33/module_input_29&#45;&gt;_34/LayerNorm_33/layer_norm_32</title>
<path fill="none" stroke="black" d="M104.21,-253.86C117.16,-241.7 132.14,-227.62 146.11,-214.49"/>
<polygon fill="black" stroke="black" points="148.86,-216.72 153.75,-207.32 144.06,-211.61 148.86,-216.72"/>
<text text-anchor="middle" x="147.5" y="-228" font-family="Times,serif" font-size="10.00" fill="white">0 &#45;&gt; 0</text>
</g>
<!-- _34/LayerNorm_33/layer_norm_32&#45;&gt;ttnn.from_torch_40 -->
<g id="edge13" class="edge">
<title>_34/LayerNorm_33/layer_norm_32&#45;&gt;ttnn.from_torch_40</title>
<path fill="none" stroke="black" d="M194,-129.79C194,-116.62 194,-101.67 194,-87.76"/>
<polygon fill="black" stroke="black" points="197.5,-87.38 194,-77.38 190.5,-87.38 197.5,-87.38"/>
<text text-anchor="middle" x="209.5" y="-98" font-family="Times,serif" font-size="10.00">0 &#45;&gt; 0</text>
</g>
<!-- _34/module_input_19 -->
<g id="node6" class="node">
<title>_34/module_input_19</title>
<polygon fill="#dcdcdc" stroke="black" points="405.5,-613.5 304.5,-613.5 304.5,-547.5 405.5,-547.5 405.5,-613.5"/>
<polygon fill="none" stroke="black" points="306,-586.5 306,-612.5 405,-612.5 405,-586.5 306,-586.5"/>
<text text-anchor="start" x="312" y="-602.5" font-family="Linux libertine" font-size="10.00">TorchModuleInput</text>
<text text-anchor="start" x="308" y="-591.5" font-family="Linux libertine" font-size="10.00">name: input_tensor</text>
<polygon fill="none" stroke="black" points="306,-548.5 306,-585.5 405,-585.5 405,-548.5 306,-548.5"/>
<text text-anchor="start" x="332.5" y="-575.5" font-family="Linux libertine" font-size="10.00">Output: 0</text>
<text text-anchor="start" x="327.5" y="-564.5" font-family="Linux libertine" font-size="10.00">(1, 64, 256)</text>
<text text-anchor="start" x="324.5" y="-553.5" font-family="Linux libertine" font-size="10.00">torch.float32</text>
</g>
<!-- _34/add_28 -->
<g id="node14" class="node">
<title>_34/add_28</title>
<polygon fill="#dcdcdc" stroke="black" points="318.5,-495 63.5,-495 63.5,-418 318.5,-418 318.5,-495"/>
<polygon fill="none" stroke="black" points="65,-418.5 65,-493.5 184,-493.5 184,-418.5 65,-418.5"/>
<text text-anchor="start" x="115" y="-459" font-family="Linux libertine" font-size="10.00">add</text>
<text text-anchor="start" x="67" y="-448" font-family="Linux libertine" font-size="10.00">duration: 0.000092030s</text>
<polygon fill="none" stroke="black" points="185,-456.5 185,-493.5 251,-493.5 251,-456.5 185,-456.5"/>
<text text-anchor="start" x="199.5" y="-483.5" font-family="Linux libertine" font-size="10.00">Input: 0</text>
<text text-anchor="start" x="190" y="-472.5" font-family="Linux libertine" font-size="10.00">(1, 64, 256)</text>
<text text-anchor="start" x="187" y="-461.5" font-family="Linux libertine" font-size="10.00">torch.float32</text>
<polygon fill="none" stroke="black" points="252,-456.5 252,-493.5 318,-493.5 318,-456.5 252,-456.5"/>
<text text-anchor="start" x="266.5" y="-483.5" font-family="Linux libertine" font-size="10.00">Input: 1</text>
<text text-anchor="start" x="257" y="-472.5" font-family="Linux libertine" font-size="10.00">(1, 64, 256)</text>
<text text-anchor="start" x="254" y="-461.5" font-family="Linux libertine" font-size="10.00">torch.float32</text>
<polygon fill="none" stroke="black" points="185,-418.5 185,-455.5 318,-455.5 318,-418.5 185,-418.5"/>
<text text-anchor="start" x="228.5" y="-445.5" font-family="Linux libertine" font-size="10.00">Output: 0</text>
<text text-anchor="start" x="223.5" y="-434.5" font-family="Linux libertine" font-size="10.00">(1, 64, 256)</text>
<text text-anchor="start" x="220.5" y="-423.5" font-family="Linux libertine" font-size="10.00">torch.float32</text>
</g>
<!-- _34/module_input_19&#45;&gt;_34/add_28 -->
<g id="edge11" class="edge">
<title>_34/module_input_19&#45;&gt;_34/add_28</title>
<path fill="none" stroke="black" d="M314.6,-547.47C308.72,-542.91 302.73,-538.31 297,-534 282.54,-523.12 266.81,-511.59 251.99,-500.88"/>
<polygon fill="black" stroke="black" points="254.03,-498.04 243.87,-495.03 249.94,-503.71 254.03,-498.04"/>
<text text-anchor="middle" x="297.5" y="-516" font-family="Times,serif" font-size="10.00" fill="white">0 &#45;&gt; 1</text>
</g>
<!-- _34/module_input_18 -->
<g id="node7" class="node">
<title>_34/module_input_18</title>
<polygon fill="#dcdcdc" stroke="black" points="245.5,-1184 136.5,-1184 136.5,-1118 245.5,-1118 245.5,-1184"/>
<polygon fill="none" stroke="black" points="138,-1157 138,-1183 245,-1183 245,-1157 138,-1157"/>
<text text-anchor="start" x="148" y="-1173" font-family="Linux libertine" font-size="10.00">TorchModuleInput</text>
<text text-anchor="start" x="140" y="-1162" font-family="Linux libertine" font-size="10.00">name: hidden_states</text>
<polygon fill="none" stroke="black" points="138,-1119 138,-1156 245,-1156 245,-1119 138,-1119"/>
<text text-anchor="start" x="168.5" y="-1146" font-family="Linux libertine" font-size="10.00">Output: 0</text>
<text text-anchor="start" x="163.5" y="-1135" font-family="Linux libertine" font-size="10.00">(1, 64, 256)</text>
<text text-anchor="start" x="160.5" y="-1124" font-family="Linux libertine" font-size="10.00">torch.float32</text>
</g>
<!-- _34/dense_24/module_input_20 -->
<g id="node9" class="node">
<title>_34/dense_24/module_input_20</title>
<polygon fill="#dcdcdc" stroke="black" points="237.5,-1020 144.5,-1020 144.5,-954 237.5,-954 237.5,-1020"/>
<polygon fill="none" stroke="black" points="146,-993 146,-1019 237,-1019 237,-993 146,-993"/>
<text text-anchor="start" x="148" y="-1009" font-family="Linux libertine" font-size="10.00">TorchModuleInput</text>
<text text-anchor="start" x="162" y="-998" font-family="Linux libertine" font-size="10.00">name: input</text>
<polygon fill="none" stroke="black" points="146,-955 146,-992 237,-992 237,-955 146,-955"/>
<text text-anchor="start" x="168.5" y="-982" font-family="Linux libertine" font-size="10.00">Output: 0</text>
<text text-anchor="start" x="163.5" y="-971" font-family="Linux libertine" font-size="10.00">(1, 64, 256)</text>
<text text-anchor="start" x="160.5" y="-960" font-family="Linux libertine" font-size="10.00">torch.float32</text>
</g>
<!-- _34/module_input_18&#45;&gt;_34/dense_24/module_input_20 -->
<g id="edge9" class="edge">
<title>_34/module_input_18&#45;&gt;_34/dense_24/module_input_20</title>
<path fill="none" stroke="black" d="M191,-1117.99C191,-1092.89 191,-1057.74 191,-1030.31"/>
<polygon fill="black" stroke="black" points="194.5,-1030.22 191,-1020.22 187.5,-1030.22 194.5,-1030.22"/>
<text text-anchor="middle" x="206.5" y="-1092" font-family="Times,serif" font-size="10.00" fill="white">0 &#45;&gt; 0</text>
</g>
<!-- _34/dense_24/torch_parameter_21 -->
<g id="node8" class="node">
<title>_34/dense_24/torch_parameter_21</title>
<polygon fill="#dcdcdc" stroke="black" points="362,-1020 256,-1020 256,-954 362,-954 362,-1020"/>
<polygon fill="none" stroke="black" points="257,-993 257,-1019 361,-1019 361,-993 257,-993"/>
<text text-anchor="start" x="262" y="-1009" font-family="Linux libertine" font-size="10.00">torch.nn.Parameter</text>
<text text-anchor="start" x="259" y="-998" font-family="Linux libertine" font-size="10.00">name: dense.weight</text>
<polygon fill="none" stroke="black" points="257,-955 257,-992 361,-992 361,-955 257,-955"/>
<text text-anchor="start" x="286" y="-982" font-family="Linux libertine" font-size="10.00">Output: 0</text>
<text text-anchor="start" x="284" y="-971" font-family="Linux libertine" font-size="10.00">(256, 256)</text>
<text text-anchor="start" x="278" y="-960" font-family="Linux libertine" font-size="10.00">torch.float32</text>
</g>
<!-- _34/dense_24/linear_23 -->
<g id="node11" class="node">
<title>_34/dense_24/linear_23</title>
<polygon fill="#dcdcdc" stroke="black" points="352,-907 30,-907 30,-830 352,-830 352,-907"/>
<polygon fill="none" stroke="black" points="31,-830.5 31,-905.5 150,-905.5 150,-830.5 31,-830.5"/>
<text text-anchor="start" x="76.5" y="-871" font-family="Linux libertine" font-size="10.00">linear</text>
<text text-anchor="start" x="33" y="-860" font-family="Linux libertine" font-size="10.00">duration: 0.006218433s</text>
<polygon fill="none" stroke="black" points="151,-868.5 151,-905.5 217,-905.5 217,-868.5 151,-868.5"/>
<text text-anchor="start" x="165.5" y="-895.5" font-family="Linux libertine" font-size="10.00">Input: 0</text>
<text text-anchor="start" x="156" y="-884.5" font-family="Linux libertine" font-size="10.00">(1, 64, 256)</text>
<text text-anchor="start" x="153" y="-873.5" font-family="Linux libertine" font-size="10.00">torch.float32</text>
<polygon fill="none" stroke="black" points="218,-868.5 218,-905.5 284,-905.5 284,-868.5 218,-868.5"/>
<text text-anchor="start" x="232.5" y="-895.5" font-family="Linux libertine" font-size="10.00">Input: 1</text>
<text text-anchor="start" x="226" y="-884.5" font-family="Linux libertine" font-size="10.00">(256, 256)</text>
<text text-anchor="start" x="220" y="-873.5" font-family="Linux libertine" font-size="10.00">torch.float32</text>
<polygon fill="none" stroke="black" points="285,-868.5 285,-905.5 351,-905.5 351,-868.5 285,-868.5"/>
<text text-anchor="start" x="299.5" y="-895.5" font-family="Linux libertine" font-size="10.00">Input: 2</text>
<text text-anchor="start" x="303.5" y="-884.5" font-family="Linux libertine" font-size="10.00">(256,)</text>
<text text-anchor="start" x="287" y="-873.5" font-family="Linux libertine" font-size="10.00">torch.float32</text>
<polygon fill="none" stroke="black" points="151,-830.5 151,-867.5 351,-867.5 351,-830.5 151,-830.5"/>
<text text-anchor="start" x="228" y="-857.5" font-family="Linux libertine" font-size="10.00">Output: 0</text>
<text text-anchor="start" x="223" y="-846.5" font-family="Linux libertine" font-size="10.00">(1, 64, 256)</text>
<text text-anchor="start" x="220" y="-835.5" font-family="Linux libertine" font-size="10.00">torch.float32</text>
</g>
<!-- _34/dense_24/torch_parameter_21&#45;&gt;_34/dense_24/linear_23 -->
<g id="edge5" class="edge">
<title>_34/dense_24/torch_parameter_21&#45;&gt;_34/dense_24/linear_23</title>
<path fill="none" stroke="black" d="M276.44,-953.86C264.13,-941.7 249.87,-927.62 236.57,-914.49"/>
<polygon fill="black" stroke="black" points="238.88,-911.85 229.3,-907.32 233.96,-916.83 238.88,-911.85"/>
<text text-anchor="middle" x="272.5" y="-928" font-family="Times,serif" font-size="10.00" fill="white">0 &#45;&gt; 1</text>
</g>
<!-- _34/dense_24/module_input_20&#45;&gt;_34/dense_24/linear_23 -->
<g id="edge4" class="edge">
<title>_34/dense_24/module_input_20&#45;&gt;_34/dense_24/linear_23</title>
<path fill="none" stroke="black" d="M191,-953.86C191,-942.6 191,-929.7 191,-917.43"/>
<polygon fill="black" stroke="black" points="194.5,-917.32 191,-907.32 187.5,-917.32 194.5,-917.32"/>
<text text-anchor="middle" x="206.5" y="-928" font-family="Times,serif" font-size="10.00" fill="white">0 &#45;&gt; 0</text>
</g>
<!-- _34/dense_24/torch_parameter_22 -->
<g id="node10" class="node">
<title>_34/dense_24/torch_parameter_22</title>
<polygon fill="#dcdcdc" stroke="black" points="126,-1020 26,-1020 26,-954 126,-954 126,-1020"/>
<polygon fill="none" stroke="black" points="27,-993 27,-1019 125,-1019 125,-993 27,-993"/>
<text text-anchor="start" x="29" y="-1009" font-family="Linux libertine" font-size="10.00">torch.nn.Parameter</text>
<text text-anchor="start" x="32.5" y="-998" font-family="Linux libertine" font-size="10.00">name: dense.bias</text>
<polygon fill="none" stroke="black" points="27,-955 27,-992 125,-992 125,-955 27,-955"/>
<text text-anchor="start" x="53" y="-982" font-family="Linux libertine" font-size="10.00">Output: 0</text>
<text text-anchor="start" x="61.5" y="-971" font-family="Linux libertine" font-size="10.00">(256,)</text>
<text text-anchor="start" x="45" y="-960" font-family="Linux libertine" font-size="10.00">torch.float32</text>
</g>
<!-- _34/dense_24/torch_parameter_22&#45;&gt;_34/dense_24/linear_23 -->
<g id="edge6" class="edge">
<title>_34/dense_24/torch_parameter_22&#45;&gt;_34/dense_24/linear_23</title>
<path fill="none" stroke="black" d="M107.73,-953.86C119.73,-941.7 133.63,-927.62 146.58,-914.49"/>
<polygon fill="black" stroke="black" points="149.13,-916.89 153.67,-907.32 144.15,-911.98 149.13,-916.89"/>
<text text-anchor="middle" x="149.5" y="-928" font-family="Times,serif" font-size="10.00" fill="white">0 &#45;&gt; 2</text>
</g>
<!-- _34/dropout_27/module_input_25 -->
<g id="node13" class="node">
<title>_34/dropout_27/module_input_25</title>
<polygon fill="#dcdcdc" stroke="black" points="237.5,-732 144.5,-732 144.5,-666 237.5,-666 237.5,-732"/>
<polygon fill="none" stroke="black" points="146,-705 146,-731 237,-731 237,-705 146,-705"/>
<text text-anchor="start" x="148" y="-721" font-family="Linux libertine" font-size="10.00">TorchModuleInput</text>
<text text-anchor="start" x="162" y="-710" font-family="Linux libertine" font-size="10.00">name: input</text>
<polygon fill="none" stroke="black" points="146,-667 146,-704 237,-704 237,-667 146,-667"/>
<text text-anchor="start" x="168.5" y="-694" font-family="Linux libertine" font-size="10.00">Output: 0</text>
<text text-anchor="start" x="163.5" y="-683" font-family="Linux libertine" font-size="10.00">(1, 64, 256)</text>
<text text-anchor="start" x="160.5" y="-672" font-family="Linux libertine" font-size="10.00">torch.float32</text>
</g>
<!-- _34/dense_24/linear_23&#45;&gt;_34/dropout_27/module_input_25 -->
<g id="edge10" class="edge">
<title>_34/dense_24/linear_23&#45;&gt;_34/dropout_27/module_input_25</title>
<path fill="none" stroke="black" d="M191,-829.91C191,-803.94 191,-769.36 191,-742.4"/>
<polygon fill="black" stroke="black" points="194.5,-742.11 191,-732.11 187.5,-742.11 194.5,-742.11"/>
<text text-anchor="middle" x="206.5" y="-804" font-family="Times,serif" font-size="10.00" fill="white">0 &#45;&gt; 0</text>
</g>
<!-- _34/dropout_27/dropout_26 -->
<g id="node12" class="node">
<title>_34/dropout_27/dropout_26</title>
<polygon fill="#dcdcdc" stroke="black" points="285,-619 97,-619 97,-542 285,-542 285,-619"/>
<polygon fill="none" stroke="black" points="98,-542.5 98,-617.5 217,-617.5 217,-542.5 98,-542.5"/>
<text text-anchor="start" x="138.5" y="-583" font-family="Linux libertine" font-size="10.00">dropout</text>
<text text-anchor="start" x="100" y="-572" font-family="Linux libertine" font-size="10.00">duration: 0.000061989s</text>
<polygon fill="none" stroke="black" points="218,-580.5 218,-617.5 284,-617.5 284,-580.5 218,-580.5"/>
<text text-anchor="start" x="232.5" y="-607.5" font-family="Linux libertine" font-size="10.00">Input: 0</text>
<text text-anchor="start" x="223" y="-596.5" font-family="Linux libertine" font-size="10.00">(1, 64, 256)</text>
<text text-anchor="start" x="220" y="-585.5" font-family="Linux libertine" font-size="10.00">torch.float32</text>
<polygon fill="none" stroke="black" points="218,-542.5 218,-579.5 284,-579.5 284,-542.5 218,-542.5"/>
<text text-anchor="start" x="228" y="-569.5" font-family="Linux libertine" font-size="10.00">Output: 0</text>
<text text-anchor="start" x="223" y="-558.5" font-family="Linux libertine" font-size="10.00">(1, 64, 256)</text>
<text text-anchor="start" x="220" y="-547.5" font-family="Linux libertine" font-size="10.00">torch.float32</text>
</g>
<!-- _34/dropout_27/dropout_26&#45;&gt;_34/add_28 -->
<g id="edge12" class="edge">
<title>_34/dropout_27/dropout_26&#45;&gt;_34/add_28</title>
<path fill="none" stroke="black" d="M191,-541.9C191,-530.3 191,-517.38 191,-505.2"/>
<polygon fill="black" stroke="black" points="194.5,-505.19 191,-495.19 187.5,-505.19 194.5,-505.19"/>
<text text-anchor="middle" x="206.5" y="-516" font-family="Times,serif" font-size="10.00" fill="white">0 &#45;&gt; 0</text>
</g>
<!-- _34/dropout_27/module_input_25&#45;&gt;_34/dropout_27/dropout_26 -->
<g id="edge7" class="edge">
<title>_34/dropout_27/module_input_25&#45;&gt;_34/dropout_27/dropout_26</title>
<path fill="none" stroke="black" d="M191,-665.86C191,-654.6 191,-641.7 191,-629.43"/>
<polygon fill="black" stroke="black" points="194.5,-629.32 191,-619.32 187.5,-629.32 194.5,-629.32"/>
<text text-anchor="middle" x="206.5" y="-640" font-family="Times,serif" font-size="10.00" fill="white">0 &#45;&gt; 0</text>
</g>
<!-- _34/add_28&#45;&gt;_34/LayerNorm_33/module_input_29 -->
<g id="edge8" class="edge">
<title>_34/add_28&#45;&gt;_34/LayerNorm_33/module_input_29</title>
<path fill="none" stroke="black" d="M155.93,-417.9C145.83,-406.4 135.1,-393.49 126,-381 114.11,-364.68 102.36,-345.73 92.72,-329.2"/>
<polygon fill="black" stroke="black" points="95.62,-327.23 87.59,-320.31 89.55,-330.72 95.62,-327.23"/>
<text text-anchor="middle" x="155.5" y="-392" font-family="Times,serif" font-size="10.00" fill="white">0 &#45;&gt; 0</text>
</g>
<!-- torch_input_17 -->
<g id="node15" class="node">
<title>torch_input_17</title>
<polygon fill="#dcdcdc" stroke="black" points="493,-726.5 425,-726.5 425,-671.5 493,-671.5 493,-726.5"/>
<polygon fill="none" stroke="black" points="426,-710 426,-725 492,-725 492,-710 426,-710"/>
<text text-anchor="start" x="448" y="-715" font-family="Linux libertine" font-size="10.00">rand</text>
<polygon fill="none" stroke="black" points="426,-672 426,-709 492,-709 492,-672 426,-672"/>
<text text-anchor="start" x="436" y="-699" font-family="Linux libertine" font-size="10.00">Output: 0</text>
<text text-anchor="start" x="431" y="-688" font-family="Linux libertine" font-size="10.00">(1, 64, 256)</text>
<text text-anchor="start" x="428" y="-677" font-family="Linux libertine" font-size="10.00">torch.float32</text>
</g>
<!-- torch_input_17&#45;&gt;_34/module_input_19 -->
<g id="edge14" class="edge">
<title>torch_input_17&#45;&gt;_34/module_input_19</title>
<path fill="none" stroke="black" d="M435.14,-671.27C422.05,-656.61 405.56,-638.13 390.94,-621.76"/>
<polygon fill="black" stroke="black" points="393.21,-619.04 383.94,-613.91 387.98,-623.71 393.21,-619.04"/>
<text text-anchor="middle" x="428.5" y="-640" font-family="Times,serif" font-size="10.00">0 &#45;&gt; 1</text>
</g>
<!-- torch_input_16 -->
<g id="node16" class="node">
<title>torch_input_16</title>
<polygon fill="#dcdcdc" stroke="black" points="225,-1322 157,-1322 157,-1267 225,-1267 225,-1322"/>
<polygon fill="none" stroke="black" points="158,-1305.5 158,-1320.5 224,-1320.5 224,-1305.5 158,-1305.5"/>
<text text-anchor="start" x="180" y="-1310.5" font-family="Linux libertine" font-size="10.00">rand</text>
<polygon fill="none" stroke="black" points="158,-1267.5 158,-1304.5 224,-1304.5 224,-1267.5 158,-1267.5"/>
<text text-anchor="start" x="168" y="-1294.5" font-family="Linux libertine" font-size="10.00">Output: 0</text>
<text text-anchor="start" x="163" y="-1283.5" font-family="Linux libertine" font-size="10.00">(1, 64, 256)</text>
<text text-anchor="start" x="160" y="-1272.5" font-family="Linux libertine" font-size="10.00">torch.float32</text>
</g>
<!-- torch_input_16&#45;&gt;_34/module_input_18 -->
<g id="edge15" class="edge">
<title>torch_input_16&#45;&gt;_34/module_input_18</title>
<path fill="none" stroke="black" d="M191,-1266.88C191,-1246.45 191,-1217.84 191,-1194.28"/>
<polygon fill="black" stroke="black" points="194.5,-1194.2 191,-1184.2 187.5,-1194.2 194.5,-1194.2"/>
<text text-anchor="middle" x="206.5" y="-1241" font-family="Times,serif" font-size="10.00">0 &#45;&gt; 0</text>
</g>
</g>
</svg>
