<svg width="64" height="64" viewBox="0 0 64 64" fill="none" xmlns="http://www.w3.org/2000/svg">
<path d="M40.0007 36V38.6667H31.4486L18.1152 52H16.0007V46.6667L21.334 41.3333V36H40.0007Z" fill="#7E71D0"/>
<path d="M49.334 36V41.3333L54.6673 46.6667V52H45.334L40.0007 46.6667H34.6673L29.334 52H21.8861L32.5527 41.3333H42.6673V36H49.334Z" fill="#7E71D0"/>
<path d="M12.0007 16V21.8854L15.4486 25.3333H18.6673V32H13.334L5.33398 24V16H12.0007Z" fill="#7E71D0"/>
<path d="M29.334 25.3333V29.3333H33.334V33.3333H21.334V25.3333H29.334Z" fill="#7E71D0"/>
<path d="M46.6673 25.3333V33.3333H36.0007V29.3333H40.0007V25.3333H46.6673Z" fill="#7E71D0"/>
<path d="M18.6673 16V22.6667H16.5527L14.6673 20.7813V16H18.6673Z" fill="#7E71D0"/>
<path d="M21.334 12H33.334V18.6667H29.334V22.6667H21.334V12Z" fill="#7E71D0"/>
<path d="M49.334 12V19.4479L46.1152 22.6667H40.0007V18.6667H36.0007V12H49.334Z" fill="#7E71D0"/>
<path d="M58.6673 21.3333L54.6673 25.3333V30.6667L52.0007 33.3333H49.334V23.2188L52.0007 20.5521V12H58.6673V21.3333Z" fill="#7E71D0"/>
</svg>
