<svg width="64" height="64" viewBox="0 0 64 64" fill="none" xmlns="http://www.w3.org/2000/svg">
<path d="M44.1206 14.6667L45.3327 16V52L41.6963 56H22.3024L18.666 52V29.3333H29.5751L30.7872 30.6667V33.3333L29.5751 34.6667H23.5145V37.3333H40.4842V16L41.6963 14.6667H44.1206Z" fill="#32ABD2"/>
<path d="M38.06 20V33.3333L36.8478 34.6667H34.4236L33.2115 33.3333V20L34.4236 18.6667H36.8478L38.06 20Z" fill="#32ABD2"/>
<path d="M23.5145 9.33333V26.6667H18.666V9.33333L19.8781 8H22.3024L23.5145 9.33333Z" fill="#32ABD2"/>
<path d="M30.7872 20V26.6667H25.9387V20L27.1509 18.6667H29.5751L30.7872 20Z" fill="#32ABD2"/>
</svg>
