<svg width="64" height="64" viewBox="0 0 64 64" fill="none" xmlns="http://www.w3.org/2000/svg">
<path fill-rule="evenodd" clip-rule="evenodd" d="M30.666 37.3337V49.3337L26.666 53.3337H14.666L10.666 49.3337V37.3337L14.666 33.3337H26.666L30.666 37.3337ZM13.3327 50.667H27.9993V36.0003H13.3327V50.667Z" fill="#EF3F1A"/>
<path d="M41.9993 53.3337H33.3327V33.3337H41.9993V53.3337Z" fill="#EF3F1A"/>
<path d="M53.3327 53.3337H44.666V33.3337H53.3327V53.3337Z" fill="#EF3F1A"/>
<path d="M19.3327 30.667H10.666V22.0003H19.3327V30.667Z" fill="#EF3F1A"/>
<path d="M30.666 30.667H21.9993V22.0003H30.666V30.667Z" fill="#EF3F1A"/>
<path d="M53.3327 30.667H33.3327V10.667H53.3327V30.667Z" fill="#EF3F1A"/>
<path d="M19.3327 19.3337H10.666V10.667H19.3327V19.3337Z" fill="#EF3F1A"/>
<path d="M30.666 19.3337H21.9993V10.667H30.666V19.3337Z" fill="#EF3F1A"/>
</svg>
